<svg width="22" height="21" viewBox="0 0 22 21" fill="none" xmlns="http://www.w3.org/2000/svg">
<path d="M21.4495 19.3186L1.21826 0.143967C1.16277 0.0901035 1.09907 0.0500187 1.0308 0.0260007C0.962536 0.00198271 0.891034 -0.00549801 0.820381 0.00398563C0.749727 0.0134693 0.681307 0.0397316 0.619025 0.081273C0.556744 0.122815 0.501821 0.178822 0.457393 0.246097L0.119079 0.758387C0.0745466 0.825685 0.0413971 0.902969 0.0215273 0.985816C0.00165745 1.06866 -0.00454267 1.15545 0.0032817 1.2412C0.0111061 1.32696 0.0328013 1.41 0.0671261 1.48558C0.101451 1.56116 0.147731 1.62779 0.203319 1.68166L20.4345 20.8563C20.49 20.9101 20.5537 20.9502 20.622 20.9742C20.6902 20.9982 20.7617 21.0057 20.8324 20.9962C20.903 20.9868 20.9715 20.9605 21.0337 20.9189C21.096 20.8774 21.1509 20.8214 21.1954 20.7541L21.5337 20.2418C21.5782 20.1745 21.6114 20.0973 21.6312 20.0144C21.6511 19.9316 21.6573 19.8448 21.6495 19.759C21.6417 19.6733 21.62 19.5902 21.5856 19.5146C21.5513 19.4391 21.505 19.3724 21.4495 19.3186ZM10.0412 6.00762L14.6013 10.3299C14.5262 7.87139 12.8725 5.90631 10.8264 5.90631C10.5625 5.90691 10.2993 5.94087 10.0412 6.00762ZM11.6116 14.993L7.05148 10.6707C7.12692 13.1288 8.7806 15.0939 10.8264 15.0939C11.0903 15.0932 11.3534 15.0594 11.6116 14.993ZM10.8264 4.5938C14.1639 4.5938 17.2236 6.84968 18.8759 10.5001C18.4709 11.3985 17.9704 12.2286 17.3873 12.9693L18.6641 14.1793C19.375 13.2573 19.9772 12.2206 20.4538 11.0985C20.5312 10.9129 20.5715 10.7079 20.5715 10.4999C20.5715 10.2919 20.5312 10.0869 20.4538 9.90128C18.6174 5.56137 14.9853 2.62503 10.8264 2.62503C9.58477 2.62503 8.40033 2.91214 7.2866 3.39654L8.85672 4.88501C9.49749 4.70864 10.1538 4.5938 10.8264 4.5938ZM10.8264 16.4064C7.48892 16.4064 4.42954 14.1505 2.77688 10.5001C3.18244 9.60172 3.68347 8.77172 4.26715 8.03135L2.99035 6.82138C2.2796 7.74321 1.67745 8.7798 1.20101 9.90169C1.12362 10.0873 1.08329 10.2923 1.08329 10.5003C1.08329 10.7083 1.12362 10.9133 1.20101 11.0989C3.03569 15.4389 6.66783 18.3752 10.8264 18.3752C12.068 18.3752 13.2524 18.086 14.3662 17.6037L12.7961 16.1156C12.1553 16.2916 11.4993 16.4064 10.8264 16.4064Z" fill="#4D4DE9"/>
</svg>
