<svg width="26" height="20" viewBox="0 0 26 20" fill="none" xmlns="http://www.w3.org/2000/svg">
<path d="M0 10V15C0 15.6914 0.574554 16.25 1.28571 16.25H2.57143V8.75H1.28571C0.574554 8.75 0 9.30859 0 10ZM18.6429 3.75H14.1429V1.25C14.1429 0.558594 13.5683 0 12.8571 0C12.146 0 11.5714 0.558594 11.5714 1.25V3.75H7.07143C5.29554 3.75 3.85714 5.14844 3.85714 6.875V17.5C3.85714 18.8789 5.01027 20 6.42857 20H19.2857C20.704 20 21.8571 18.8789 21.8571 17.5V6.875C21.8571 5.14844 20.4188 3.75 18.6429 3.75ZM10.2857 16.25H7.71429V15H10.2857V16.25ZM9 11.5625C8.11205 11.5625 7.39286 10.8633 7.39286 10C7.39286 9.13672 8.11205 8.4375 9 8.4375C9.88795 8.4375 10.6071 9.13672 10.6071 10C10.6071 10.8633 9.88795 11.5625 9 11.5625ZM14.1429 16.25H11.5714V15H14.1429V16.25ZM18 16.25H15.4286V15H18V16.25ZM16.7143 11.5625C15.8263 11.5625 15.1071 10.8633 15.1071 10C15.1071 9.13672 15.8263 8.4375 16.7143 8.4375C17.6022 8.4375 18.3214 9.13672 18.3214 10C18.3214 10.8633 17.6022 11.5625 16.7143 11.5625ZM24.4286 8.75H23.1429V16.25H24.4286C25.1397 16.25 25.7143 15.6914 25.7143 15V10C25.7143 9.30859 25.1397 8.75 24.4286 8.75Z" fill="#4D4DE9"/>
</svg>
