<svg width="25" height="30" viewBox="0 0 25 30" fill="none" xmlns="http://www.w3.org/2000/svg">
<path d="M24.6807 18.36L22.4377 16.8917C22.6641 15.5069 22.6641 14.0864 22.4377 12.7016L24.6807 11.2333C24.9387 11.0662 25.0545 10.72 24.9703 10.3977C24.3858 8.27279 23.3907 6.35084 22.0902 4.7512C21.8902 4.50648 21.5637 4.4468 21.311 4.61392L19.068 6.08224C18.1256 5.16305 17.041 4.45277 15.8668 3.9872V1.05653C15.8668 0.722278 15.6615 0.429808 15.3719 0.358183C13.4396 -0.131257 11.4599 -0.107382 9.62237 0.358183C9.33279 0.429808 9.12745 0.722278 9.12745 1.05653V3.99317C7.95859 4.4647 6.87397 5.17499 5.92624 6.08821L3.68855 4.61989C3.43056 4.45277 3.10939 4.50649 2.90931 4.75717C1.60882 6.35084 0.613711 8.27279 0.0292805 10.4036C-0.060227 10.726 0.0608713 11.0721 0.318863 11.2393L2.56181 12.7076C2.33541 14.0923 2.33541 15.5129 2.56181 16.8977L0.318863 18.366C0.0608713 18.5331 -0.0549618 18.8793 0.0292805 19.2016C0.613711 21.3265 1.60882 23.2485 2.90931 24.8481C3.10939 25.0928 3.43583 25.1525 3.68855 24.9854L5.93151 23.517C6.87397 24.4362 7.95859 25.1465 9.13271 25.6121V28.5487C9.13271 28.883 9.33805 29.1755 9.62764 29.2471C11.5599 29.7365 13.5396 29.7126 15.3772 29.2471C15.6668 29.1755 15.8721 28.883 15.8721 28.5487V25.6121C17.041 25.1406 18.1256 24.4303 19.0733 23.517L21.3163 24.9854C21.5742 25.1525 21.8954 25.0988 22.0955 24.8481C23.396 23.2544 24.3911 21.3325 24.9755 19.2016C25.0545 18.8733 24.9387 18.5272 24.6807 18.36ZM12.4971 19.5717C10.1752 19.5717 8.28503 17.4289 8.28503 14.7967C8.28503 12.1644 10.1752 10.0216 12.4971 10.0216C14.8191 10.0216 16.7093 12.1644 16.7093 14.7967C16.7093 17.4289 14.8191 19.5717 12.4971 19.5717Z" fill="#4D4DE9"/>
</svg>
