<svg width="19" height="23" viewBox="0 0 19 23" fill="none" xmlns="http://www.w3.org/2000/svg">
<path d="M18.737 12.2453L12.4034 22.0874C11.8379 22.9662 10.8577 22.351 10.8577 21.0915V15.4674H5.73044C5.22903 15.4674 4.82564 14.8406 4.82564 14.0614V8.43734C4.82564 7.65818 5.22903 7.03133 5.73044 7.03133H10.8577V1.40726C10.8577 0.153564 11.8341 -0.467426 12.4034 0.411334L18.737 10.2534C19.0877 10.8041 19.0877 11.6946 18.737 12.2453ZM7.23845 21.7945V19.4511C7.23845 19.0645 7.03487 18.7481 6.78605 18.7481H3.61923C2.95193 18.7481 2.41282 17.9104 2.41282 16.8734V5.62531C2.41282 4.58837 2.95193 3.75062 3.61923 3.75062H6.78605C7.03487 3.75062 7.23845 3.43427 7.23845 3.04761V0.704254C7.23845 0.3176 7.03487 0.001246 6.78605 0.001246H3.61923C1.62111 0.001246 0 2.52036 0 5.62531V16.8734C0 19.9784 1.62111 22.4975 3.61923 22.4975H6.78605C7.03487 22.4975 7.23845 22.1812 7.23845 21.7945Z" fill="#4D4DE9"/>
</svg>
