<svg width="22" height="36" viewBox="0 0 22 36" fill="none" xmlns="http://www.w3.org/2000/svg">
<path d="M11.0294 0C6.03941 0 2.80736 2.26917 0.269871 6.31605C-0.19044 7.05017 -0.0485272 8.0567 0.593582 8.59709L3.29043 10.8667C3.93892 11.4124 4.8616 11.2848 5.3693 10.5789C6.93528 8.40142 8.0969 7.14773 10.543 7.14773C12.4663 7.14773 14.8451 8.52153 14.8451 10.5915C14.8451 12.1563 13.6813 12.96 11.7823 14.1416C9.56773 15.5197 6.6372 17.2346 6.6372 21.5248V22.2039C6.6372 23.1237 7.30894 23.8692 8.1376 23.8692H12.6683C13.4969 23.8692 14.1687 23.1237 14.1687 22.2039V21.8034C14.1687 18.8294 22 18.7056 22 10.6579C22.0001 4.59733 16.3359 0 11.0294 0ZM10.403 25.9133C8.01507 25.9133 6.07236 28.0695 6.07236 30.7199C6.07236 33.3701 8.01507 35.5263 10.403 35.5263C12.7908 35.5263 14.7336 33.3701 14.7336 30.7198C14.7336 28.0695 12.7908 25.9133 10.403 25.9133Z" fill="#4D4DE9"/>
</svg>
