<svg width="23" height="20" viewBox="0 0 23 20" fill="none" xmlns="http://www.w3.org/2000/svg">
<path d="M9.58317 14.1251H5.95109C2.7215 14.1251 1.9165 13.4251 1.9165 10.6167V5.61673C1.9165 2.8084 2.7215 2.1084 5.95109 2.1084H16.0423C19.2719 2.1084 20.0769 2.8084 20.0769 5.61673" stroke="#F7F7FC" stroke-width="1.5" stroke-linecap="round" stroke-linejoin="round"/>
<path d="M9.5835 17.8917V14.125" stroke="#F7F7FC" stroke-width="1.5" stroke-linecap="round" stroke-linejoin="round"/>
<path d="M1.9165 10.7915H9.58317" stroke="#F7F7FC" stroke-width="1.5" stroke-linecap="round" stroke-linejoin="round"/>
<path d="M6.45898 17.8916H9.58315" stroke="#F7F7FC" stroke-width="1.5" stroke-linecap="round" stroke-linejoin="round"/>
<path d="M21.0832 10.6669V15.4252C21.0832 17.4002 20.5178 17.8919 18.2466 17.8919H14.8445C12.5732 17.8919 12.0078 17.4002 12.0078 15.4252V10.6669C12.0078 8.69186 12.5732 8.2002 14.8445 8.2002H18.2466C20.5178 8.2002 21.0832 8.69186 21.0832 10.6669Z" stroke="#F7F7FC" stroke-width="1.5" stroke-linecap="round" stroke-linejoin="round"/>
<path d="M16.5261 15.2082H16.5348" stroke="#F7F7FC" stroke-width="2" stroke-linecap="round" stroke-linejoin="round"/>
</svg>
