<svg width="26" height="18" viewBox="0 0 26 18" fill="none" xmlns="http://www.w3.org/2000/svg">
<path d="M12.5513 4.66967L4.29805 10.7715V17.3571C4.29805 17.5276 4.37351 17.6911 4.50783 17.8117C4.64215 17.9323 4.82433 18 5.01428 18L10.0306 17.9883C10.2199 17.9875 10.4012 17.9194 10.5347 17.7989C10.6683 17.6784 10.7432 17.5154 10.7432 17.3454V13.4995C10.7432 13.329 10.8187 13.1655 10.953 13.0449C11.0873 12.9243 11.2695 12.8566 11.4595 12.8566H14.3244C14.5143 12.8566 14.6965 12.9243 14.8308 13.0449C14.9652 13.1655 15.0406 13.329 15.0406 13.4995V17.3426C15.0403 17.4272 15.0586 17.511 15.0945 17.5893C15.1304 17.6675 15.1831 17.7386 15.2496 17.7985C15.3161 17.8584 15.3952 17.906 15.4822 17.9384C15.5693 17.9708 15.6626 17.9875 15.7568 17.9875L20.7714 18C20.9613 18 21.1435 17.9323 21.2778 17.8117C21.4121 17.6911 21.4876 17.5276 21.4876 17.3571V10.7671L13.2362 4.66967C13.1392 4.59948 13.0183 4.56121 12.8937 4.56121C12.7691 4.56121 12.6483 4.59948 12.5513 4.66967ZM25.588 8.81697L21.8457 6.04795V0.482197C21.8457 0.35431 21.7891 0.231662 21.6884 0.141232C21.5876 0.0508028 21.451 0 21.3085 0H18.8017C18.6593 0 18.5226 0.0508028 18.4219 0.141232C18.3211 0.231662 18.2645 0.35431 18.2645 0.482197V3.39989L14.2568 0.440004C13.8722 0.155902 13.3896 0.000567925 12.8915 0.000567925C12.3934 0.000567925 11.9108 0.155902 11.5262 0.440004L0.194948 8.81697C0.140554 8.85732 0.0955514 8.90691 0.0625117 8.96288C0.0294719 9.01886 0.00904275 9.08013 0.00239138 9.14319C-0.00425998 9.20626 0.00299682 9.26988 0.0237472 9.33043C0.0444975 9.39097 0.0783347 9.44726 0.123325 9.49606L1.26482 10.7417C1.30969 10.7907 1.36487 10.8313 1.42722 10.8611C1.48957 10.8909 1.55786 10.9093 1.62817 10.9154C1.69848 10.9215 1.76944 10.9151 1.83698 10.8965C1.90452 10.878 1.96732 10.8476 2.02178 10.8072L12.5513 3.02217C12.6483 2.95198 12.7691 2.9137 12.8937 2.9137C13.0183 2.9137 13.1392 2.95198 13.2362 3.02217L23.7661 10.8072C23.8205 10.8476 23.8832 10.878 23.9506 10.8966C24.0181 10.9152 24.0889 10.9218 24.1592 10.9158C24.2295 10.9098 24.2977 10.8915 24.3601 10.8618C24.4224 10.8322 24.4777 10.7918 24.5226 10.7429L25.6641 9.49726C25.709 9.44818 25.7427 9.39161 25.7632 9.3308C25.7838 9.26998 25.7907 9.20613 25.7836 9.14291C25.7765 9.0797 25.7556 9.01836 25.722 8.96242C25.6885 8.90648 25.6429 8.85705 25.588 8.81697Z" fill="#4D4DE9"/>
</svg>
