<svg width="25" height="30" viewBox="0 0 25 30" fill="none" xmlns="http://www.w3.org/2000/svg">
<path d="M12.5 5.73005C9.82863 5.73005 7.66129 8.29664 7.66129 11.4601C7.66129 14.6236 9.82863 17.1902 12.5 17.1902C15.1714 17.1902 17.3387 14.6236 17.3387 11.4601C17.3387 8.29664 15.1714 5.73005 12.5 5.73005ZM12.5 14.3251C11.1643 14.3251 10.0806 13.0418 10.0806 11.4601C10.0806 9.87837 11.1643 8.59508 12.5 8.59508C13.8357 8.59508 14.9194 9.87837 14.9194 11.4601C14.9194 13.0418 13.8357 14.3251 12.5 14.3251ZM12.5 0C5.59476 0 0 6.62537 0 14.8026C0 22.9799 5.59476 29.6053 12.5 29.6053C19.4052 29.6053 25 22.9799 25 14.8026C25 6.62537 19.4052 0 12.5 0ZM12.5 26.7402C9.99496 26.7402 7.70665 25.6479 5.94254 23.8513C6.69355 22.4785 7.97883 21.5474 9.4506 21.4937C10.499 21.8757 11.497 22.0667 12.5 22.0667C13.503 22.0667 14.501 21.8816 15.5494 21.4937C17.0212 21.5533 18.3065 22.4785 19.0575 23.8513C17.2933 25.6479 15.005 26.7402 12.5 26.7402ZM20.7006 21.7205C19.4708 19.8463 17.5706 18.6227 15.4032 18.6227C14.8891 18.6227 14.0927 19.1957 12.5 19.1957C10.9123 19.1957 10.1109 18.6227 9.59677 18.6227C7.43448 18.6227 5.53427 19.8463 4.2994 21.7205C3.11996 19.7687 2.41935 17.3812 2.41935 14.8026C2.41935 8.21904 6.94052 2.86503 12.5 2.86503C18.0595 2.86503 22.5806 8.21904 22.5806 14.8026C22.5806 17.3812 21.88 19.7687 20.7006 21.7205Z" fill="#4D4DE9"/>
</svg>
