<svg width="26" height="26" viewBox="0 0 26 26" fill="none" xmlns="http://www.w3.org/2000/svg">
<path d="M13 26C15.0498 26 16.7125 24.5451 16.7125 22.75H9.28747C9.28747 24.5451 10.9502 26 13 26ZM25.5003 18.3975C24.379 17.3433 22.281 15.7574 22.281 10.5625C22.281 6.6168 19.1193 3.4582 14.856 2.68328V1.625C14.856 0.727695 14.0249 0 13 0C11.9751 0 11.144 0.727695 11.144 1.625V2.68328C6.88073 3.4582 3.71896 6.6168 3.71896 10.5625C3.71896 15.7574 1.62097 17.3433 0.499726 18.3975C0.151513 18.7251 -0.00286165 19.1166 4.01251e-05 19.5C0.00642403 20.3328 0.753341 21.125 1.86298 21.125H24.137C25.2467 21.125 25.9942 20.3328 26 19.5C26.0029 19.1166 25.8485 18.7246 25.5003 18.3975Z" fill="#4D4DE9"/>
</svg>
