<svg width="26" height="20" viewBox="0 0 26 20" fill="none" xmlns="http://www.w3.org/2000/svg">
<path d="M10.7139 14.125H6.65339C3.04288 14.125 2.14293 13.425 2.14293 10.6167V5.61671C2.14293 2.80837 3.04288 2.10837 6.65339 2.10837H17.9349C21.5454 2.10837 22.4453 2.80837 22.4453 5.61671" stroke="#4D4DE9" stroke-width="1.5" stroke-linecap="round" stroke-linejoin="round"/>
<path d="M10.7136 17.8918V14.1251" stroke="#4D4DE9" stroke-width="1.5" stroke-linecap="round" stroke-linejoin="round"/>
<path d="M2.14293 10.7918H10.7139" stroke="#4D4DE9" stroke-width="1.5" stroke-linecap="round" stroke-linejoin="round"/>
<path d="M7.22105 17.8916H10.7137" stroke="#4D4DE9" stroke-width="1.5" stroke-linecap="round" stroke-linejoin="round"/>
<path d="M23.5703 10.6668V15.4251C23.5703 17.4001 22.9382 17.8918 20.3991 17.8918H16.5957C14.0566 17.8918 13.4245 17.4001 13.4245 15.4251V10.6668C13.4245 8.69179 14.0566 8.20012 16.5957 8.20012H20.3991C22.9382 8.20012 23.5703 8.69179 23.5703 10.6668Z" stroke="#4D4DE9" stroke-width="1.5" stroke-linecap="round" stroke-linejoin="round"/>
<path d="M18.475 15.2083H18.4846" stroke="#4D4DE9" stroke-width="2" stroke-linecap="round" stroke-linejoin="round"/>
</svg>
