<svg width="30" height="26" viewBox="0 0 30 26" fill="none" xmlns="http://www.w3.org/2000/svg">
<path d="M14.8574 16.25C16.9087 16.25 18.5716 14.7949 18.5716 13C18.5716 11.2051 16.9087 9.75 14.8574 9.75C12.806 9.75 11.1431 11.2051 11.1431 13C11.1431 14.7949 12.806 16.25 14.8574 16.25Z" stroke="#F7F7FC" stroke-width="1.5" stroke-miterlimit="10" stroke-linecap="round" stroke-linejoin="round"/>
<path d="M2.47607 13.9532V12.0466C2.47607 10.9199 3.52846 9.98822 4.82846 9.98822C7.06941 9.98822 7.9856 8.60156 6.85893 6.90072C6.21512 5.92572 6.59893 4.65822 7.7256 4.09489L9.8675 3.02239C10.8456 2.51322 12.1085 2.81656 12.6904 3.67239L12.8265 3.87822C13.9408 5.57906 15.7732 5.57906 16.8999 3.87822L17.0361 3.67239C17.618 2.81656 18.8808 2.51322 19.8589 3.02239L22.0008 4.09489C23.1275 4.65822 23.5113 5.92572 22.8675 6.90072C21.7408 8.60156 22.657 9.98822 24.898 9.98822C26.1856 9.98822 27.2504 10.9091 27.2504 12.0466V13.9532C27.2504 15.0799 26.198 16.0116 24.898 16.0116C22.657 16.0116 21.7408 17.3982 22.8675 19.0991C23.5113 20.0849 23.1275 21.3416 22.0008 21.9049L19.8589 22.9774C18.8808 23.4866 17.618 23.1832 17.0361 22.3274L16.8999 22.1216C15.7856 20.4207 13.9532 20.4207 12.8265 22.1216L12.6904 22.3274C12.1085 23.1832 10.8456 23.4866 9.8675 22.9774L7.7256 21.9049C6.59893 21.3416 6.21512 20.0741 6.85893 19.0991C7.9856 17.3982 7.06941 16.0116 4.82846 16.0116C3.52846 16.0116 2.47607 15.0799 2.47607 13.9532Z" stroke="#F7F7FC" stroke-width="1.5" stroke-miterlimit="10" stroke-linecap="round" stroke-linejoin="round"/>
</svg>
