<svg width="32" height="26" viewBox="0 0 32 26" fill="none" xmlns="http://www.w3.org/2000/svg">
<path d="M21.3335 0H10.6668C4.77566 0 0 5.65538 0 12.6317C0 19.608 4.77566 25.2634 10.6668 25.2634H21.3335C27.2247 25.2634 32.0003 19.608 32.0003 12.6317C32.0003 5.65538 27.2247 0 21.3335 0ZM3.55559 12.6317C3.55559 7.97765 6.73612 4.21057 10.6668 4.21057C14.5969 4.21057 17.778 7.97699 17.778 12.6317C17.778 17.2858 14.5974 21.0528 10.6668 21.0528C6.73668 21.0528 3.55559 17.2864 3.55559 12.6317ZM21.3335 21.0528H18.6166C22.2398 16.2595 22.2408 9.00535 18.6166 4.21057H21.3335C25.2636 4.21057 28.4447 7.97699 28.4447 12.6317C28.4447 17.2857 25.2642 21.0528 21.3335 21.0528Z" fill="#4D4DE9"/>
</svg>
