<svg width="28" height="21" viewBox="0 0 28 21" fill="none" xmlns="http://www.w3.org/2000/svg">
<path d="M0 10.5V15.75C0 16.476 0.611095 17.0625 1.36749 17.0625H2.73497V9.18751H1.36749C0.611095 9.18751 0 9.77403 0 10.5ZM19.8285 3.9375H15.0423V1.3125C15.0423 0.586524 14.4312 0 13.6749 0C12.9185 0 12.3074 0.586524 12.3074 1.3125V3.9375H7.52117C5.63233 3.9375 4.10246 5.40586 4.10246 7.21876V18.375C4.10246 19.8229 5.32892 21 6.83743 21H20.5123C22.0208 21 23.2473 19.8229 23.2473 18.375V7.21876C23.2473 5.40586 21.7174 3.9375 19.8285 3.9375ZM10.9399 17.0625H8.20492V15.75H10.9399V17.0625ZM9.5724 12.1406C8.62798 12.1406 7.86304 11.4065 7.86304 10.5C7.86304 9.59356 8.62798 8.85938 9.5724 8.85938C10.5168 8.85938 11.2818 9.59356 11.2818 10.5C11.2818 11.4065 10.5168 12.1406 9.5724 12.1406ZM15.0423 17.0625H12.3074V15.75H15.0423V17.0625ZM19.1448 17.0625H16.4098V15.75H19.1448V17.0625ZM17.7773 12.1406C16.8329 12.1406 16.068 11.4065 16.068 10.5C16.068 9.59356 16.8329 8.85938 17.7773 8.85938C18.7217 8.85938 19.4867 9.59356 19.4867 10.5C19.4867 11.4065 18.7217 12.1406 17.7773 12.1406ZM25.9822 9.18751H24.6147V17.0625H25.9822C26.7386 17.0625 27.3497 16.476 27.3497 15.75V10.5C27.3497 9.77403 26.7386 9.18751 25.9822 9.18751Z" fill="white"/>
</svg>
